<svg width="60" height="60" viewBox="0 0 60 60" fill="none" xmlns="http://www.w3.org/2000/svg">
<rect width="60" height="60" rx="4" fill="#CDECFF"/>
<path d="M36.184 31.184C36.3357 31.0255 36.4547 30.8386 36.534 30.634C36.7007 30.2282 36.7007 29.7731 36.534 29.3673C36.4547 29.1627 36.3357 28.9758 36.184 28.8173L31.184 23.8173C30.8702 23.5035 30.4445 23.3272 30.0007 23.3272C29.5568 23.3272 29.1312 23.5035 28.8173 23.8173C28.5035 24.1312 28.3272 24.5568 28.3272 25.0007C28.3272 25.4445 28.5035 25.8702 28.8173 26.184L30.984 28.334H25.0007C24.5586 28.334 24.1347 28.5096 23.8221 28.8221C23.5096 29.1347 23.334 29.5586 23.334 30.0007C23.334 30.4427 23.5096 30.8666 23.8221 31.1792C24.1347 31.4917 24.5586 31.6673 25.0007 31.6673H30.984L28.8173 33.8173C28.6611 33.9723 28.5371 34.1566 28.4525 34.3597C28.3679 34.5628 28.3243 34.7806 28.3243 35.0007C28.3243 35.2207 28.3679 35.4385 28.4525 35.6416C28.5371 35.8447 28.6611 36.0291 28.8173 36.184C28.9723 36.3402 29.1566 36.4642 29.3597 36.5488C29.5628 36.6334 29.7806 36.677 30.0007 36.677C30.2207 36.677 30.4385 36.6334 30.6416 36.5488C30.8447 36.4642 31.0291 36.3402 31.184 36.184L36.184 31.184ZM46.6673 30.0007C46.6673 26.7043 45.6898 23.482 43.8585 20.7412C42.0271 18.0003 39.4242 15.8641 36.3787 14.6027C33.3333 13.3412 29.9822 13.0112 26.7492 13.6542C23.5161 14.2973 20.5464 15.8847 18.2155 18.2155C15.8847 20.5464 14.2973 23.5161 13.6542 26.7492C13.0112 29.9822 13.3412 33.3333 14.6027 36.3787C15.8641 39.4242 18.0003 42.0271 20.7412 43.8585C23.482 45.6898 26.7043 46.6673 30.0007 46.6673C34.4209 46.6673 38.6602 44.9114 41.7858 41.7858C44.9114 38.6602 46.6673 34.4209 46.6673 30.0007ZM16.6673 30.0007C16.6673 27.3636 17.4493 24.7857 18.9144 22.5931C20.3795 20.4004 22.4619 18.6914 24.8982 17.6823C27.3346 16.6731 30.0154 16.4091 32.6019 16.9235C35.1883 17.438 37.564 18.7079 39.4287 20.5726C41.2934 22.4373 42.5633 24.813 43.0778 27.3995C43.5923 29.9859 43.3282 32.6668 42.3191 35.1031C41.3099 37.5395 39.6009 39.6218 37.4083 41.0869C35.2156 42.552 32.6377 43.334 30.0007 43.334C26.4644 43.334 23.0731 41.9292 20.5726 39.4287C18.0721 36.9283 16.6673 33.5369 16.6673 30.0007Z" fill="#64A3CB"/>
</svg>
