<svg width="24" height="24" viewBox="0 0 24 24" fill="none" xmlns="http://www.w3.org/2000/svg">
<path d="M20.4697 8.99938C20.6675 8.99938 20.8608 8.94073 21.0253 8.83085C21.1897 8.72097 21.3179 8.56479 21.3936 8.38206C21.4693 8.19934 21.4891 7.99827 21.4505 7.80429C21.4119 7.61031 21.3167 7.43213 21.1768 7.29227C21.037 7.15242 20.8588 7.05718 20.6648 7.01859C20.4708 6.98001 20.2698 6.99981 20.087 7.0755C19.9043 7.15119 19.7481 7.27936 19.6383 7.44381C19.5284 7.60826 19.4697 7.8016 19.4697 7.99938C19.4697 8.2646 19.5751 8.51895 19.7626 8.70649C19.9501 8.89402 20.2045 8.99938 20.4697 8.99938ZM17.4697 8.99938C17.6675 8.99938 17.8608 8.94073 18.0253 8.83085C18.1897 8.72097 18.3179 8.56479 18.3936 8.38206C18.4693 8.19934 18.4891 7.99827 18.4505 7.80429C18.4119 7.61031 18.3167 7.43213 18.1768 7.29227C18.037 7.15242 17.8588 7.05718 17.6648 7.01859C17.4708 6.98001 17.2698 6.99981 17.087 7.0755C16.9043 7.15119 16.7481 7.27936 16.6383 7.44381C16.5284 7.60826 16.4697 7.8016 16.4697 7.99938C16.4697 8.2646 16.5751 8.51895 16.7626 8.70649C16.9501 8.89402 17.2045 8.99938 17.4697 8.99938ZM14.4697 8.99938C14.6675 8.99938 14.8608 8.94073 15.0253 8.83085C15.1897 8.72097 15.3179 8.56479 15.3936 8.38206C15.4693 8.19934 15.4891 7.99827 15.4505 7.80429C15.4119 7.61031 15.3167 7.43213 15.1768 7.29227C15.037 7.15242 14.8588 7.05718 14.6648 7.01859C14.4708 6.98001 14.2698 6.99981 14.087 7.0755C13.9043 7.15119 13.7481 7.27936 13.6383 7.44381C13.5284 7.60826 13.4697 7.8016 13.4697 7.99938C13.4697 8.1307 13.4956 8.26074 13.5458 8.38206C13.5961 8.50339 13.6698 8.61363 13.7626 8.70649C13.8555 8.79935 13.9657 8.873 14.087 8.92326C14.2084 8.97351 14.3384 8.99938 14.4697 8.99938ZM18.9097 12.9994C18.6897 12.9994 18.4597 12.9294 18.2397 12.8794C17.7942 12.7812 17.3564 12.6509 16.9297 12.4894C16.4658 12.3206 15.9559 12.3294 15.498 12.514C15.0402 12.6986 14.6668 13.046 14.4497 13.4894L14.2297 13.9394C13.2542 13.3952 12.3562 12.7225 11.5597 11.9394C10.7804 11.1433 10.1081 10.2491 9.55972 9.27938L9.99972 8.99938C10.4431 8.7823 10.7905 8.40891 10.9751 7.95107C11.1597 7.49323 11.1685 6.98329 10.9997 6.51938C10.8409 6.0918 10.7107 5.65418 10.6097 5.20938C10.5597 4.97938 10.5197 4.75938 10.4897 4.52938C10.3683 3.825 9.99934 3.18712 9.44934 2.73062C8.89934 2.27412 8.20442 2.02899 7.48972 2.03938H4.48972C4.06697 2.03883 3.64887 2.12763 3.26284 2.29996C2.87681 2.4723 2.53155 2.72428 2.24972 3.03938C1.96341 3.36188 1.74999 3.74231 1.62402 4.15475C1.49804 4.56719 1.46247 5.00195 1.51972 5.42938C2.04643 9.61642 3.9521 13.509 6.93612 16.493C9.92014 19.477 13.8127 21.3827 17.9997 21.9094C18.1295 21.9193 18.2599 21.9193 18.3897 21.9094C19.1854 21.9094 19.9484 21.5933 20.511 21.0307C21.0736 20.4681 21.3897 19.705 21.3897 18.9094V15.9094C21.3793 15.2116 21.126 14.5393 20.6734 14.0081C20.2207 13.477 19.597 13.1203 18.9097 12.9994ZM19.3997 18.9994C19.4014 19.1443 19.3715 19.2879 19.3121 19.4202C19.2528 19.5524 19.1654 19.6702 19.056 19.7653C18.9466 19.8604 18.8178 19.9306 18.6786 19.9711C18.5394 20.0115 18.393 20.0211 18.2497 19.9994C14.5159 19.5121 11.0468 17.8075 8.37972 15.1494C5.71472 12.4642 4.01296 8.97282 3.53972 5.21938C3.518 5.07271 3.52916 4.92305 3.57239 4.78123C3.61563 4.63941 3.68987 4.50898 3.78972 4.39938C3.88231 4.29397 3.99605 4.20922 4.12354 4.15064C4.25103 4.09206 4.38942 4.06097 4.52972 4.05938H7.52972C7.76227 4.05421 7.98934 4.13026 8.17186 4.27445C8.35438 4.41864 8.48093 4.62195 8.52972 4.84938C8.56972 5.12271 8.61972 5.39271 8.67972 5.65938C8.79524 6.18652 8.94898 6.70456 9.13972 7.20938L7.73972 7.85938C7.62002 7.9143 7.51234 7.99233 7.42288 8.08898C7.33341 8.18562 7.26392 8.29899 7.21839 8.42257C7.17286 8.54615 7.15219 8.67751 7.15757 8.8091C7.16294 8.94069 7.19426 9.06992 7.24972 9.18938C8.68892 12.2721 11.167 14.7502 14.2497 16.1894C14.4932 16.2894 14.7663 16.2894 15.0097 16.1894C15.2579 16.097 15.4593 15.91 15.5697 15.6694L16.1997 14.2694C16.7167 14.4543 17.2443 14.6079 17.7797 14.7294C18.0397 14.7894 18.3197 14.8394 18.5897 14.8794C18.8153 14.9302 19.0163 15.0576 19.1585 15.2399C19.3007 15.4222 19.3754 15.6482 19.3697 15.8794L19.3997 18.9994Z" fill="#FCFCFC"/>
</svg>
