<svg width="40" height="40" viewBox="0 0 40 40" fill="none" xmlns="http://www.w3.org/2000/svg">
<path d="M34.833 3.33398H5.16634C4.68011 3.33398 4.2138 3.52714 3.86998 3.87096C3.52616 4.21477 3.33301 4.68109 3.33301 5.16732V34.834C3.33301 35.0747 3.38043 35.3131 3.47256 35.5356C3.5647 35.758 3.69974 35.9601 3.86998 36.1303C4.04022 36.3006 4.24232 36.4356 4.46476 36.5278C4.68719 36.6199 4.92558 36.6673 5.16634 36.6673H21.133V23.7507H16.7997V18.7507H21.133V15.0007C21.0432 14.1202 21.1472 13.2309 21.4375 12.3949C21.7279 11.5589 22.1976 10.7966 22.8138 10.1613C23.43 9.52611 24.1776 9.03339 25.0044 8.71771C25.8311 8.40204 26.7169 8.27107 27.5997 8.33398C28.8969 8.326 30.1935 8.39278 31.483 8.53398V13.034H28.833C26.733 13.034 26.333 14.034 26.333 15.484V18.7007H31.333L30.683 23.7007H26.333V36.6673H34.833C35.0738 36.6673 35.3122 36.6199 35.5346 36.5278C35.757 36.4356 35.9591 36.3006 36.1294 36.1303C36.2996 35.9601 36.4347 35.758 36.5268 35.5356C36.6189 35.3131 36.6663 35.0747 36.6663 34.834V5.16732C36.6663 4.92656 36.6189 4.68816 36.5268 4.46573C36.4347 4.2433 36.2996 4.0412 36.1294 3.87096C35.9591 3.70071 35.757 3.56567 35.5346 3.47354C35.3122 3.38141 35.0738 3.33398 34.833 3.33398Z" fill="#FCFCFC"/>
</svg>
