<svg width="40" height="40" viewBox="0 0 40 40" fill="none" xmlns="http://www.w3.org/2000/svg">
<path d="M22.9663 15.7673C22.8832 15.7673 22.8008 15.7837 22.724 15.8155C22.6471 15.8474 22.5773 15.894 22.5185 15.9528C22.4597 16.0116 22.413 16.0814 22.3812 16.1583C22.3494 16.2351 22.333 16.3175 22.333 16.4007V19.184L19.9997 16.084C19.9415 15.9897 19.8608 15.9113 19.7648 15.856C19.6687 15.8007 19.5604 15.7702 19.4497 15.7673C19.3665 15.7673 19.2841 15.7837 19.2073 15.8155C19.1305 15.8474 19.0607 15.894 19.0018 15.9528C18.943 16.0116 18.8964 16.0814 18.8646 16.1583C18.8327 16.2351 18.8163 16.3175 18.8163 16.4007V21.134C18.8163 21.2172 18.8327 21.2995 18.8646 21.3764C18.8964 21.4532 18.943 21.523 19.0018 21.5818C19.0607 21.6406 19.1305 21.6873 19.2073 21.7191C19.2841 21.7509 19.3665 21.7673 19.4497 21.7673C19.5328 21.7673 19.6152 21.7509 19.692 21.7191C19.7689 21.6873 19.8387 21.6406 19.8975 21.5818C19.9563 21.523 20.003 21.4532 20.0348 21.3764C20.0666 21.2995 20.083 21.2172 20.083 21.134V18.334L22.3997 21.5173C22.4587 21.6061 22.5473 21.6711 22.6497 21.7007C22.7265 21.7179 22.8062 21.7179 22.883 21.7007C22.9561 21.7272 23.034 21.738 23.1116 21.7323C23.1892 21.7265 23.2646 21.7044 23.333 21.6673L23.4997 21.5507C23.6167 21.43 23.6824 21.2687 23.683 21.1007V16.4007C23.6838 16.31 23.6651 16.2202 23.6282 16.1374C23.5913 16.0545 23.537 15.9806 23.4691 15.9206C23.4011 15.8605 23.3211 15.8158 23.2344 15.7893C23.1476 15.7629 23.0562 15.7554 22.9663 15.7673ZM15.333 20.4507H13.5663V16.4007C13.5663 16.2327 13.4996 16.0716 13.3808 15.9528C13.2621 15.834 13.101 15.7673 12.933 15.7673C12.765 15.7673 12.6039 15.834 12.4852 15.9528C12.3664 16.0716 12.2997 16.2327 12.2997 16.4007V21.134C12.2997 21.302 12.3664 21.463 12.4852 21.5818C12.6039 21.7006 12.765 21.7673 12.933 21.7673H15.333C15.5025 21.7674 15.6654 21.7012 15.7868 21.5829C15.9083 21.4646 15.9787 21.3035 15.983 21.134C15.9875 21.0459 15.9741 20.9577 15.9434 20.875C15.9128 20.7922 15.8656 20.7166 15.8048 20.6527C15.744 20.5887 15.6708 20.5378 15.5897 20.5031C15.5086 20.4684 15.4212 20.4505 15.333 20.4507ZM17.183 15.7673C17.0135 15.7673 16.8506 15.8335 16.7292 15.9518C16.6078 16.0701 16.5374 16.2312 16.533 16.4007V21.134C16.5374 21.3035 16.6078 21.4646 16.7292 21.5829C16.8506 21.7012 17.0135 21.7674 17.183 21.7673C17.351 21.7673 17.5121 21.7006 17.6308 21.5818C17.7496 21.463 17.8163 21.302 17.8163 21.134V16.4007C17.8163 16.2327 17.7496 16.0716 17.6308 15.9528C17.5121 15.834 17.351 15.7673 17.183 15.7673ZM29.8497 3.33398H10.1497C8.34314 3.33839 6.61184 4.05798 5.33442 5.3354C4.057 6.61282 3.33741 8.34411 3.33301 10.1507V29.8507C3.33741 31.6572 4.057 33.3885 5.33442 34.6659C6.61184 35.9433 8.34314 36.6629 10.1497 36.6673H29.8497C31.6562 36.6629 33.3875 35.9433 34.6649 34.6659C35.9423 33.3885 36.6619 31.6572 36.6663 29.8507V10.1507C36.6619 8.34411 35.9423 6.61282 34.6649 5.3354C33.3875 4.05798 31.6562 3.33839 29.8497 3.33398ZM30.3663 23.8007C30.3007 23.9 30.2283 23.9946 30.1497 24.084C29.7522 24.5731 29.3054 25.0199 28.8163 25.4173C25.483 28.534 19.883 32.2673 19.133 31.684C18.383 31.1007 20.1997 28.7507 18.2497 28.3507C18.1113 28.3681 17.9714 28.3681 17.833 28.3507C12.0997 27.5507 7.83301 23.534 7.83301 18.7173C7.83301 13.3007 13.3163 8.91732 20.0663 8.91732C26.8163 8.91732 32.2997 13.3007 32.2997 18.7173C32.2418 20.5803 31.5611 22.3701 30.3663 23.8007ZM27.5163 15.784H24.9997C24.8317 15.784 24.6706 15.8507 24.5518 15.9695C24.4331 16.0883 24.3663 16.2493 24.3663 16.4173V21.1507C24.3663 21.2338 24.3827 21.3162 24.4146 21.393C24.4464 21.4699 24.493 21.5397 24.5518 21.5985C24.6107 21.6573 24.6805 21.7039 24.7573 21.7358C24.8341 21.7676 24.9165 21.784 24.9997 21.784H27.4663C27.5495 21.784 27.6319 21.7676 27.7087 21.7358C27.7855 21.7039 27.8554 21.6573 27.9142 21.5985C27.973 21.5397 28.0196 21.4699 28.0515 21.393C28.0833 21.3162 28.0997 21.2338 28.0997 21.1507C28.0997 20.9827 28.033 20.8216 27.9142 20.7028C27.7954 20.584 27.6343 20.5173 27.4663 20.5173H25.7497V19.5173H27.5163C27.6858 19.513 27.8469 19.4426 27.9652 19.3211C28.0835 19.1997 28.1497 19.0369 28.1497 18.8673C28.1497 18.6993 28.0829 18.5383 27.9642 18.4195C27.8454 18.3007 27.6843 18.234 27.5163 18.234H25.7497V17.2173H27.5163C27.6843 17.2173 27.8454 17.1506 27.9642 17.0318C28.0829 16.913 28.1497 16.752 28.1497 16.584C28.1759 16.4882 28.1792 16.3876 28.1593 16.2903C28.1395 16.193 28.097 16.1017 28.0353 16.0238C27.9737 15.9459 27.8946 15.8837 27.8044 15.842C27.7143 15.8003 27.6156 15.7805 27.5163 15.784Z" fill="#FCFCFC"/>
</svg>
