<svg width="28" height="28" viewBox="0 0 28 28" fill="none" xmlns="http://www.w3.org/2000/svg">
<rect width="28" height="28" rx="14" fill="#002E62"/>
<path d="M10.2921 11.6246C11.4483 14.7787 12.6453 16.0372 15.6904 17.3776L14.3707 19.231C10.874 17.5569 9.13232 14.7349 8.31206 12.5327L10.2921 11.6246Z" fill="#FCFCFC"/>
<path d="M11.2645 7.27007C11.8827 7.26766 12.3528 7.78211 12.3107 8.36464C12.2444 9.28135 12.315 9.94274 12.5051 10.7626C12.6095 11.2129 12.3733 11.6703 11.9978 11.9649C11.4917 12.3619 11.1051 12.8679 10.7978 13.3034C10.3719 13.9071 8.90615 13.8637 8.582 13.2061C7.91583 11.8545 7.46436 9.36445 8.43717 7.68211C8.58997 7.41786 8.89764 7.27933 9.21645 7.27808L11.2645 7.27007Z" fill="#FCFCFC"/>
<path d="M20.6466 17.2736C20.7235 16.6942 20.2392 16.1916 19.6218 16.1611C18.6502 16.113 17.9635 15.9673 17.1245 15.6904C16.6637 15.5383 16.1545 15.7049 15.7997 16.0215C15.3214 16.4482 14.7431 16.7498 14.2483 16.9855C13.5625 17.3123 13.4318 18.6917 14.0842 19.0747C15.4248 19.8618 17.988 20.5845 19.8734 19.8748C20.1696 19.7633 20.3522 19.4915 20.3919 19.1927L20.6466 17.2736Z" fill="#FCFCFC"/>
</svg>
