<svg width="28" height="28" viewBox="0 0 28 28" fill="none" xmlns="http://www.w3.org/2000/svg">
<path fill-rule="evenodd" clip-rule="evenodd" d="M14 0C6.26801 0 0 6.26801 0 14C0 21.732 6.26801 28 14 28C21.732 28 28 21.732 28 14C28 6.26801 21.732 0 14 0ZM13.8651 6.87719C17.9957 6.87719 21.3442 9.56093 21.3442 12.8715C21.3442 14.0278 20.9354 15.1075 20.2276 16.0232C20.1926 16.0753 20.1469 16.1329 20.0892 16.1965L20.0848 16.2013C19.843 16.4908 19.5708 16.7626 19.2714 17.0135C17.2032 18.9269 13.7989 21.2049 13.3495 20.8535C13.2028 20.7387 13.2571 20.4561 13.3189 20.1348C13.4215 19.601 13.5447 18.9603 12.8 18.805C12.7168 18.7955 12.6338 18.7852 12.5515 18.7735L12.5499 18.7734V18.7733C9.04649 18.2751 6.38596 15.8224 6.38596 12.8715C6.38586 9.56093 9.73443 6.87719 13.8651 6.87719ZM9.52575 14.7829H11.0342C11.2487 14.7829 11.4242 14.6072 11.4242 14.3924V14.3598C11.4242 14.1451 11.2487 13.9694 11.0342 13.9694H9.94835V11.4968C9.94835 11.282 9.77285 11.1064 9.55829 11.1064H9.52575C9.31118 11.1064 9.13569 11.282 9.13569 11.4968V14.3923C9.13569 14.6071 9.31118 14.7829 9.52575 14.7829ZM18.8727 12.9679V12.9353C18.8727 12.7205 18.6972 12.5449 18.4826 12.5449H17.3969V11.9267H18.4826C18.6972 11.9267 18.8727 11.7511 18.8727 11.5363V11.5037C18.8727 11.289 18.6972 11.1133 18.4826 11.1133H16.9742C16.7596 11.1133 16.5841 11.289 16.5841 11.5037V14.3993C16.5841 14.6141 16.7596 14.7898 16.9742 14.7898H18.4826C18.6972 14.7898 18.8727 14.6141 18.8727 14.3993V14.3667C18.8727 14.152 18.6972 13.9763 18.4826 13.9763H17.3969V13.3582H18.4826C18.6972 13.3583 18.8727 13.1826 18.8727 12.9679ZM15.9719 14.6665L15.972 14.6663C16.0441 14.5935 16.0847 14.495 16.0848 14.3924V11.4969C16.0848 11.2821 15.9093 11.1065 15.6946 11.1065H15.6621C15.4475 11.1065 15.272 11.2821 15.272 11.4969V13.1966L13.8622 11.3039C13.7948 11.1862 13.668 11.1065 13.5235 11.1065H13.4909C13.2764 11.1065 13.1008 11.2821 13.1008 11.4969V14.3924C13.1008 14.6072 13.2763 14.7829 13.4909 14.7829H13.5235C13.738 14.7829 13.9135 14.6072 13.9135 14.3924V12.6609L15.3336 14.6022C15.3423 14.6158 15.3519 14.6289 15.3622 14.6413L15.3622 14.6414C15.4012 14.6947 15.4546 14.7312 15.5141 14.7535C15.5598 14.7724 15.6098 14.7829 15.662 14.7829H15.6946C15.7582 14.7829 15.8207 14.7672 15.8768 14.7373C15.9158 14.7187 15.9487 14.6947 15.9719 14.6665ZM12.1291 14.7829H12.1617C12.3762 14.7829 12.5517 14.6072 12.5517 14.3924V11.4968C12.5517 11.2821 12.3762 11.1064 12.1617 11.1064H12.1291C11.9146 11.1064 11.739 11.2821 11.739 11.4968V14.3924C11.739 14.6072 11.9146 14.7829 12.1291 14.7829Z" fill="#002E62"/>
</svg>
