<svg width="28" height="28" viewBox="0 0 28 28" fill="none" xmlns="http://www.w3.org/2000/svg">
<rect width="28" height="28" rx="14" fill="#002E62"/>
<path fill-rule="evenodd" clip-rule="evenodd" d="M20.9279 9.3302C20.9736 9.29467 21 9.24223 21 9.18695C21 9.0837 20.9097 9 20.7983 9H7.31312C7.14019 9 7 9.12994 7 9.29022C7 9.3765 7.04142 9.45831 7.11301 9.51345L13.687 14.5762C13.8303 14.6866 14.0382 14.6861 14.1809 14.5752L20.9279 9.3302ZM7.63157 10.9962C7.3805 10.8029 7 10.9684 7 11.2709V18.6429C7 18.8401 7.17251 19 7.38532 19H20.6147C20.8275 19 21 18.8401 21 18.6429V11.1275C21 10.8241 20.6178 10.6589 20.3671 10.8538L14.2247 15.6288L14.1836 15.6607C14.0409 15.7716 13.833 15.7721 13.6897 15.6618L13.6485 15.63L7.63157 10.9962Z" fill="#FCFCFC"/>
</svg>
